
<svg xmlns="http://www.w3.org/2000/svg" viewBox="-10 -10 420 420" width="32" height="32"><path fill="#264d73" d="m73.874.18-6.457.422C49.281 1.785 30.092 5.499 15.185 10.713l-3.284 1.149-1.324 3.904c-37.383 110.257 29.615 290.007 129.342 347.015 48.331 27.628 102.744 28.683 181.796 3.524l8.651-2.754 36.455 36.451 33.181-33.181-36.457-36.462 2.455-7.597c27.195-84.133 24.481-141.623-9.091-192.582C314.466 65.756 215.162 12.295 118.468 1.814 105.854.446 82.676-.403 73.874.18"/><g fill="none" stroke="#eebf3f" stroke-width="14"><path d="m383.5 383.5-299-299M213 213h-68l-35-35h-10m113 35v-85l-20-20m121 206H190l-22-22m146 22v-90l-35-35v-30"/><circle cx="80" cy="178" r="15.5"/><circle cx="73.5" cy="73.5" r="15.5"/><circle cx="183" cy="98" r="15.5"/><circle cx="278.5" cy="139" r="15.5"/><circle cx="159.5" cy="284" r="15.5"/></g></svg>
